{
  "accessors": [
    {
      "bufferView": 1,
      "componentType": 5126,
      "count": 65532,
      "max": [
        10.896842956542969,
        15.274917602539062,
        10.521831512451172
      ],
      "min": [
        0,
        0.064631462097167969,
        0
      ],
      "type": "VEC3"
    },
    {
      "bufferView": 1,
      "byteOffset": 786384,
      "componentType": 5126,
      "count": 65532,
      "max": [
        0.99999541044235229,
        0.99999988079071045,
        0.99994784593582153
      ],
      "min": [
        -0.99995088577270508,
        -0.99999988079071045,
        -0.99994069337844849
      ],
      "type": "VEC3"
    },
    {
      "bufferView": 0,
      "componentType": 5125,
      "count": 328281,
      "max": [
        65531
      ],
      "min": [
        0
      ],
      "type": "SCALAR"
    },
    {
      "bufferView": 1,
      "byteOffset": 1572768,
      "componentType": 5126,
      "count": 60783,
      "max": [
        10.877522468566895,
        15.274101257324219,
        10.516626358032227
      ],
      "min": [
        0,
        0,
        0
      ],
      "type": "VEC3"
    },
    {
      "bufferView": 1,
      "byteOffset": 2302164,
      "componentType": 5126,
      "count": 60783,
      "max": [
        0.9998592734336853,
        0.99999970197677612,
        0.99998468160629272
      ],
      "min": [
        -0.99998891353607178,
        -0.99999982118606567,
        -0.99997603893280029
      ],
      "type": "VEC3"
    },
    {
      "bufferView": 0,
      "byteOffset": 1313124,
      "componentType": 5125,
      "count": 272190,
      "max": [
        60782
      ],
      "min": [
        0
      ],
      "type": "SCALAR"
    }
  ],
  "asset": {
    "extras": {
      "author": "Craig A Stewart (https://sketchfab.com/craigastewart)",
      "license": "CC-BY-4.0 (http://creativecommons.org/licenses/by/4.0/)",
      "source": "https://sketchfab.com/models/5c67e7860b3c420983a72b5198bdc51e",
      "title": "Mage - Tabletop Wars"
    },
    "generator": "Sketchfab-3.18.6",
    "version": "2.0"
  },
  "bufferViews": [
    {
      "buffer": 0,
      "byteLength": 2401884,
      "byteOffset": 0,
      "name": "floatBufferViews",
      "target": 34963
    },
    {
      "buffer": 0,
      "byteLength": 3031560,
      "byteOffset": 2401884,
      "byteStride": 12,
      "name": "floatBufferViews",
      "target": 34962
    }
  ],
  "buffers": [
    {
      "byteLength": 5433444,
      "uri": "scene.bin"
    }
  ],
  "materials": [
    {
      "doubleSided": true,
      "emissiveFactor": [
        0,
        0,
        0
      ],
      "name": "Scene_-_Root",
      "pbrMetallicRoughness": {
        "baseColorFactor": [
          0.43023672421013281,
          0.36497312612850791,
          0.29852968631167337,
          1
        ],
        "metallicFactor": 0.14195884149999999,
        "roughnessFactor": 0.64805640239999995
      }
    }
  ],
  "meshes": [
    {
      "primitives": [
        {
          "attributes": {
            "NORMAL": 1,
            "POSITION": 0
          },
          "indices": 2,
          "material": 0,
          "mode": 4
        }
      ]
    },
    {
      "primitives": [
        {
          "attributes": {
            "NORMAL": 4,
            "POSITION": 3
          },
          "indices": 5,
          "material": 0,
          "mode": 4
        }
      ]
    }
  ],
  "nodes": [
    {
      "children": [
        1
      ],
      "name": "RootNode (gltf orientation matrix)",
      "rotation": [
        -0.70710678118654746,
        -0,
        -0,
        0.70710678118654757
      ]
    },
    {
      "children": [
        2
      ],
      "matrix": [
        1,
        0,
        0,
        0,
        0,
        0.0073045589961111546,
        -0.99997329711914062,
        0,
        0,
        0.99997329711914062,
        0.0073045589961111546,
        0,
        0,
        3.0095317363739014,
        1.911273717880249,
        1
      ],
      "name": "RootNode (model correction matrix)"
    },
    {
      "children": [
        3,
        4
      ],
      "matrix": [
        1,
        0,
        0,
        0,
        0,
        1,
        0,
        0,
        0,
        0,
        1,
        0,
        -5.4288206100463867,
        -5.1700530052185059,
        -5.8210806846618652,
        1
      ],
      "name": "Mage.stl.cleaner.gles"
    },
    {
      "mesh": 0,
      "name": ""
    },
    {
      "mesh": 1,
      "name": ""
    }
  ],
  "scene": 0,
  "scenes": [
    {
      "name": "OSG_Scene",
      "nodes": [
        0
      ]
    }
  ]
}

